# xmcd
#
# Track frame offsets:
# 150
# 20582
# 41112
# 57643
# 74294
# 87775
# 103638
# 121597
# 141292
# 156918
# 179636
#
# Disc length: 2608 seconds
#
# Revision: 0
# Processed by: cddbd v1.5.2PL0 Copyright (c) Steve Scherf et al.
# Submitted via: Axialis_AX_CDPlayer 2.6
#
DISCID=9b0a2e0b
DTITLE=Reba McEntire - Duets
DYEAR=1900
DGENRE=
TTITLE0=When You Love Someone Like That
TTITLE1=Does The Wind Still Blow In Oklahoma
TTITLE2=Because Of You
TTITLE3=Faith In Love
TTITLE4=She Can't Save Him
TTITLE5=Everyday People
TTITLE6=Every Other Weekend
TTITLE7=These Broken Hearts
TTITLE8=Sleeping With The Telephone
TTITLE9=The Only Promise That Remains
TTITLE10=Break Each Other's Hearts Again
EXTD=www.reba.com
EXTT0=With LeAnn Rimes
EXTT1=With Ronnie Dunn
EXTT2=With Kelly Clarkson
EXTT3=With Rascal Flatts
EXTT4=With Trisha Yearwood
EXTT5=With Carol King
EXTT6=With Kenny Chesney
EXTT7=With Vince Gill
EXTT8=With Faith Hill
EXTT9=With Justin Timberlake
EXTT10=With Don Henley
PLAYORDER=
